<svg width="244" height="177" viewBox="0 0 244 177" fill="none" xmlns="http://www.w3.org/2000/svg">
<path d="M21.7552 177H0L120.294 2.48715e-05L180.014 87.6449L119.441 177H98.1119L158.259 87.6449L120.294 33.3479L21.7552 177Z" fill="url(#paint0_linear_1_78)"/>
<path d="M75.0769 177H51.6154L96.1475 113.297L72.2594 112.87L82.7552 97.0507H130.105L75.0769 177Z" fill="url(#paint1_linear_1_78)"/>
<path d="M185.133 92.7754L173.615 110.304L220.965 177H244L185.133 92.7754Z" fill="url(#paint2_linear_1_78)"/>
<path d="M184.28 81.6594L173.615 66.6957L222.245 0L231.203 17.1014L184.28 81.6594Z" fill="url(#paint3_linear_1_78)"/>
<defs>
<linearGradient id="paint0_linear_1_78" x1="187.207" y1="-4.81631" x2="57.6939" y2="176.785" gradientUnits="userSpaceOnUse">
<stop stop-color="#0071BC"/>
<stop offset="0.831731" stop-color="#043556"/>
</linearGradient>
<linearGradient id="paint1_linear_1_78" x1="187.207" y1="-4.81631" x2="57.6939" y2="176.785" gradientUnits="userSpaceOnUse">
<stop stop-color="#0071BC"/>
<stop offset="0.831731" stop-color="#043556"/>
</linearGradient>
<linearGradient id="paint2_linear_1_78" x1="187.207" y1="-4.81631" x2="57.6939" y2="176.785" gradientUnits="userSpaceOnUse">
<stop stop-color="#0071BC"/>
<stop offset="0.831731" stop-color="#043556"/>
</linearGradient>
<linearGradient id="paint3_linear_1_78" x1="187.207" y1="-4.81631" x2="57.6939" y2="176.785" gradientUnits="userSpaceOnUse">
<stop stop-color="#0071BC"/>
<stop offset="0.831731" stop-color="#043556"/>
</linearGradient>
</defs>
</svg>
